<svg width="23" height="23" viewBox="0 0 23 23" fill="none" xmlns="http://www.w3.org/2000/svg">
<path d="M2.875 10.5417C2.875 6.92779 2.875 5.12037 3.99817 3.99817C5.12133 2.87596 6.92779 2.875 10.5417 2.875H12.4583C16.0722 2.875 17.8796 2.875 19.0018 3.99817C20.124 5.12133 20.125 6.92779 20.125 10.5417V12.4583C20.125 16.0722 20.125 17.8796 19.0018 19.0018C17.8787 20.124 16.0722 20.125 12.4583 20.125H10.5417C6.92779 20.125 5.12037 20.125 3.99817 19.0018C2.87596 17.8787 2.875 16.0722 2.875 12.4583V10.5417Z" stroke="white" stroke-width="1.5"/>
<path d="M15.8125 8.625C16.6064 8.625 17.25 7.98141 17.25 7.1875C17.25 6.39359 16.6064 5.75 15.8125 5.75C15.0186 5.75 14.375 6.39359 14.375 7.1875C14.375 7.98141 15.0186 8.625 15.8125 8.625Z" fill="white"/>
<path d="M11.5 14.375C13.0878 14.375 14.375 13.0878 14.375 11.5C14.375 9.91218 13.0878 8.625 11.5 8.625C9.91218 8.625 8.625 9.91218 8.625 11.5C8.625 13.0878 9.91218 14.375 11.5 14.375Z" stroke="white" stroke-width="1.5"/>
</svg>
