<svg width="20" height="20" viewBox="0 0 20 20" fill="none" xmlns="http://www.w3.org/2000/svg">
<path d="M9.58333 19.1667C4.29046 19.1667 0 14.8762 0 9.58333C0 4.29046 4.29046 0 9.58333 0C14.8762 0 19.1667 4.29046 19.1667 9.58333C19.1667 14.8762 14.8762 19.1667 9.58333 19.1667ZM7.38875 16.9309C6.44327 14.9254 5.89554 12.7556 5.77588 10.5417H1.97608C2.16279 12.0164 2.77366 13.4051 3.73449 14.5393C4.69533 15.6735 5.9648 16.5043 7.38875 16.9309ZM7.69542 10.5417C7.84012 12.879 8.50808 15.0746 9.58333 17.0123C10.6878 15.0234 11.3329 12.8124 11.4712 10.5417H7.69542ZM17.1906 10.5417H13.3908C13.2711 12.7556 12.7234 14.9254 11.7779 16.9309C13.2019 16.5043 14.4713 15.6735 15.4322 14.5393C16.393 13.4051 17.0039 12.0164 17.1906 10.5417ZM1.97608 8.625H5.77588C5.89554 6.41104 6.44327 4.24128 7.38875 2.23579C5.9648 2.66235 4.69533 3.49317 3.73449 4.62736C2.77366 5.76154 2.16279 7.15031 1.97608 8.625ZM7.69637 8.625H11.4703C11.3322 6.3543 10.6875 4.14332 9.58333 2.15433C8.47888 4.14324 7.83379 6.35422 7.69542 8.625M11.777 2.23579C12.7228 4.24122 13.2708 6.41098 13.3908 8.625H17.1906C17.0039 7.15031 16.393 5.76154 15.4322 4.62736C14.4713 3.49317 13.2019 2.66235 11.7779 2.23579" fill="#F5C026"/>
</svg>
