<svg width="294" height="294" viewBox="0 0 294 294" fill="none" xmlns="http://www.w3.org/2000/svg">
<path fill-rule="evenodd" clip-rule="evenodd" d="M108.732 26.404C84.7996 33.9857 63.6665 48.5213 48.026 68.1584C32.3854 87.7955 22.9458 111.645 20.91 136.667H82.1367C82.5877 121.688 83.9817 106.928 86.305 92.9334C89.134 75.7954 93.3434 59.9967 98.7417 46.4667C101.475 39.498 104.818 32.7843 108.732 26.404ZM146.917 0C127.623 -2.87494e-07 108.519 3.80011 90.6941 11.1834C72.8694 18.5666 56.6734 29.3884 43.0309 43.0309C29.3884 56.6734 18.5666 72.8694 11.1834 90.6941C3.80011 108.519 0 127.623 0 146.917C0 166.21 3.80011 185.315 11.1834 203.139C18.5666 220.964 29.3884 237.16 43.0309 250.803C56.6734 264.445 72.8694 275.267 90.6941 282.65C108.519 290.033 127.623 293.833 146.917 293.833C185.881 293.833 223.25 278.355 250.803 250.803C278.355 223.25 293.833 185.881 293.833 146.917C293.833 107.952 278.355 70.5831 250.803 43.0309C223.25 15.4787 185.881 5.8062e-07 146.917 0ZM146.917 20.5C143.35 20.5 138.73 22.222 133.373 27.7707C127.961 33.374 122.563 42.1343 117.779 54.079C113.037 65.9554 109.169 80.278 106.518 96.2954C104.4 109.142 103.101 122.768 102.664 136.667H191.169C190.775 123.139 189.487 109.653 187.315 96.2954C184.664 80.278 180.796 65.9554 176.054 54.079C171.271 42.1343 165.872 33.374 160.474 27.7707C155.103 22.222 150.497 20.5 146.917 20.5ZM211.697 136.667C211.286 122.012 209.894 107.402 207.528 92.9334C204.699 75.7954 200.49 59.9967 195.092 46.4667C192.355 39.4975 189.007 32.7838 185.088 26.404C204.412 32.5161 221.981 43.1898 236.31 57.523C257.51 78.7288 270.482 106.78 272.91 136.667H211.697ZM191.169 157.167H102.664C103.088 171.066 104.4 184.691 106.518 197.538C109.169 213.555 113.037 227.878 117.779 239.754C122.563 251.699 127.961 260.459 133.359 266.063C138.73 271.611 143.336 273.333 146.917 273.333C150.484 273.333 155.103 271.611 160.46 266.063C165.872 260.459 171.271 251.699 176.054 239.754C180.796 227.878 184.664 213.555 187.315 197.538C189.434 184.691 190.732 171.066 191.169 157.167ZM185.101 267.429C188.791 261.498 192.14 254.733 195.078 247.367C200.49 233.837 204.699 218.038 207.528 200.9C209.889 186.432 211.277 171.821 211.683 157.167H272.91C270.874 182.189 261.434 206.038 245.794 225.675C230.153 245.312 209.034 259.848 185.101 267.429ZM108.718 267.429C104.809 261.049 101.47 254.335 98.7417 247.367C93.3297 233.837 89.1204 218.038 86.2914 200.9C83.9307 186.432 82.5427 171.821 82.1367 157.167H20.91C22.9447 182.187 32.3824 206.035 48.0204 225.672C63.6583 245.309 84.7885 259.846 108.718 267.429Z" fill="black"/>
</svg>
