<svg width="25" height="25" viewBox="0 0 25 25" fill="none" xmlns="http://www.w3.org/2000/svg">
<path d="M24.2812 11.2109H20.9398C20.4668 7.20781 17.2922 4.0332 13.2891 3.56016V0.21875C13.2891 0.0984375 13.1906 0 13.0703 0H11.4297C11.3094 0 11.2109 0.0984375 11.2109 0.21875V3.56016C7.20781 4.0332 4.0332 7.20781 3.56016 11.2109H0.21875C0.0984375 11.2109 0 11.3094 0 11.4297V13.0703C0 13.1906 0.0984375 13.2891 0.21875 13.2891H3.56016C4.0332 17.2922 7.20781 20.4668 11.2109 20.9398V24.2812C11.2109 24.4016 11.3094 24.5 11.4297 24.5H13.0703C13.1906 24.5 13.2891 24.4016 13.2891 24.2812V20.9398C17.2922 20.4668 20.4668 17.2922 20.9398 13.2891H24.2812C24.4016 13.2891 24.5 13.1906 24.5 13.0703V11.4297C24.5 11.3094 24.4016 11.2109 24.2812 11.2109ZM12.25 18.9219C8.56406 18.9219 5.57812 15.9359 5.57812 12.25C5.57812 8.56406 8.56406 5.57812 12.25 5.57812C15.9359 5.57812 18.9219 8.56406 18.9219 12.25C18.9219 15.9359 15.9359 18.9219 12.25 18.9219Z" fill="black"/>
</svg>
