<svg width="22" height="22" viewBox="0 0 22 22" fill="none" xmlns="http://www.w3.org/2000/svg">
<g clip-path="url(#clip0_81_362)">
<path d="M12.8804 14.734V2.91306M12.8804 14.7376C12.8809 15.1941 12.7889 15.6462 12.6097 16.0682C12.4305 16.4901 12.1676 16.8736 11.8359 17.1967C11.5043 17.5198 11.1105 17.7763 10.6769 17.9514C10.2434 18.1265 9.77857 18.2169 9.30909 18.2174C8.36115 18.2161 7.45254 17.8488 6.78306 17.1963C6.11357 16.5437 5.73803 15.6594 5.73902 14.7376C5.73902 12.8171 7.33765 11.259 9.30909 11.259M18.1738 8.97718C16.7701 8.97654 15.4241 8.43406 14.4315 7.46894C13.439 6.50381 12.8811 5.19501 12.8804 3.83012" stroke="white" stroke-width="2" stroke-linecap="round" stroke-linejoin="round"/>
</g>
<defs>
<clipPath id="clip0_81_362">
<rect width="18.1739" height="18.1739" fill="white" transform="translate(2.86951 1)"/>
</clipPath>
</defs>
</svg>
